<svg viewBox="0 0 119 97" version="1.1" xmlns="http://www.w3.org/2000/svg">
    <path d="M73.0397 38.9089L100.816 19.7072C103.359 18.2031 105.212 20.2806 104.151 22.6596L93.1735 47.4863L112.52 65.5936C115.063 67.0977 115.06 69.6057 112.508 71.0938L84.7316 90.2954C82.1884 91.7995 79.3355 89.7221 80.3963 87.343L91.3742 62.5162L72.0275 44.4089C69.4843 42.9048 69.4872 40.3968 72.039 38.9087L73.0397 38.9089Z" fill="#67C23A"/>
    <path d="M45.2632 38.9089L18.4867 19.7072C15.9435 18.2031 14.0906 20.2806 15.1514 22.6596L26.1293 47.4863L6.78249 65.5936C4.23928 67.0977 4.24222 69.6057 6.79404 71.0938L34.5705 90.2954C37.1137 91.7995 39.9666 89.7221 38.9058 87.343L27.9278 62.5162L47.2746 44.4089C49.8178 42.9048 49.8149 40.3968 47.2631 38.9087H46.2632L45.2632 38.9089Z" fill="#F90"/>
</svg>
